<svg xmlns="http://www.w3.org/2000/svg" fill="none" viewBox="0 0 28 20"><path fill="currentcolor" fill-rule="evenodd" d="M28 3.868c-.286.928-.948 1.648-1.477 2.439-1.313 1.962-2.653 3.907-3.982 5.86-.028.041-.049.087-.083.15.442.29.886.567 1.309.87.18.13.359.293.462.48.258.465.1 1.007-.329 1.35-1.523 1.214-3.061 2.412-4.555 3.66-.793.662-1.74.287-2.02-.526-1.068-3.102-2.18-6.19-3.275-9.284-.019-.052-.043-.102-.087-.205-.083.224-.15.4-.213.577l-3.088 8.755c-.036.102-.066.206-.105.307-.285.736-1.179.979-1.813.484-.626-.49-1.242-.99-1.863-1.485-.92-.733-1.835-1.472-2.76-2.2-.747-.588-.716-1.406.085-1.931.455-.299.908-.6 1.383-.912-.179-.26-.346-.504-.516-.747C3.49 9.247 1.91 6.98.315 4.723c-.573-.811-.366-2.14.633-2.63.55-.272 1.073-.594 1.615-.882.624-.332 1.252-.328 1.868.027q4.642 2.68 9.278 5.37c.182.106.312.116.502.004 3.072-1.794 6.15-3.58 9.227-5.366q.986-.573 1.988-.013c.51.285 1.015.576 1.538.836.542.27.796.732.987 1.249.02.053.033.107.049.161zm-1.704.734-.028-.04C22.64 5.586 19.015 6.612 15.33 7.655l6.181 4.019zm-13.624 3.04L1.85 4.563l-.026.044 4.88 6.97zm-3.144 10.14 2.386-6.806a.35.35 0 0 0-.162.128l-2.294 3.083c-.104.14-.204.284-.316.418-.482.58-1.407.556-1.85-.052-.307-.422-.603-.853-.918-1.3l-1.384.912zM1.512 3.22 9.23 5.426a.21.21 0 0 0-.097-.122 3350 3350 0 0 0-5.27-3.05c-.202-.117-.412-.103-.616.01q-.622.34-1.243.681c-.147.08-.294.164-.492.275m9.196 7.243-.044-.042L7.4 12.573l.85 1.201z" clip-rule="evenodd"/></svg>