<svg fill="none" height="20" viewBox="0 0 15 20" width="15" xmlns="http://www.w3.org/2000/svg"><path d="m6 14.4643c0 .6904.58763 1.25 1.3125 1.25h3.375c.7249 0 1.3125-.5596 1.3125-1.25v-3.0357h3v7.3214c0 .6904-.5876 1.25-1.3125 1.25h-12.375c-.724874 0-1.3125-.5596-1.3125-1.25v-7.3214h6z" fill="#8c9196"/><path d="m6 11.4286h6v3.0357c0 .6904-.5876 1.25-1.3125 1.25h-3.375c-.72487 0-1.3125-.5596-1.3125-1.25z" fill="#000"/><path d="m1.5 11.4286v-10.1786c0-.690356.58763-1.25 1.3125-1.25h9.375c.7249 0 1.3125.559644 1.3125 1.25v10.1786z" fill="#ff6101"/><path clip-rule="evenodd" d="m1.5 10h12v1.4286h-12z" fill="#7f3001" fill-rule="evenodd"/></svg>