<svg fill="none" height="20" viewBox="0 0 18 20" width="18" xmlns="http://www.w3.org/2000/svg"><path clip-rule="evenodd" d="m2.22856 0c-.99411 0-1.800002.805887-1.800002 1.8v16.4c0 .9941.805882 1.8 1.800002 1.8h13.54284c.9941 0 1.8-.8059 1.8-1.8v-16.4c0-.994113-.8059-1.8-1.8-1.8zm13.91424 15.7143h-4.2857v2.8572h3.8572c.2367 0 .4285-.1919.4285-.4286z" fill="#ff6101" fill-rule="evenodd"/><path d="m11.8571 14.2857h5.7143v3.9143c0 .9941-.8059 1.8-1.8 1.8h-3.9143z" fill="#000"/><path d="m.428558 14.2857h11.428542v5.7143h-9.62854c-.99411 0-1.800002-.8059-1.800002-1.8z" fill="#cfcfcf"/><path d="m.428558 14.2829h17.1429v1.42857h-17.1429z" fill="#7f3001"/></svg>