<svg fill="none" height="22" viewBox="0 0 16 22" width="16" xmlns="http://www.w3.org/2000/svg"><path d="m0 7.33331h13.0909v13.19999c0 .81-.6512 1.4667-1.4545 1.4667h-10.18186c-.803318 0-1.45454-.6567-1.45454-1.4667z" fill="#8c9196"/><path d="m1.35065 2.93335h10.38965c.7459 0 1.3506.60975 1.3506 1.3619v3.0381h-13.0909v-3.0381c0-.75215.604706-1.3619 1.35065-1.3619z" fill="#000"/><path d="m14.5455 0c.8033 0 1.4545.656649 1.4545 1.46667v10.26663c0 .8101-.6512 1.4667-1.4545 1.4667h-1.4546v-7.33333c0-.75216-.5615-1.37208-1.2849-1.4568l-.1696-.00987h-1.4546v-2.93333c0-.810021.6512-1.46667 1.4546-1.46667z" fill="#4f5255"/><path d="m14.7925 5.80554h-1.5095v.77306c0 .41682.3379.75472.7547.75472.4169 0 .7548-.3379.7548-.75472z" fill="#7f3001"/><path d="m14.7925 6.1111v-3.82861c0-.41682-.3379-.75472-.7548-.75472-.4168 0-.7547.3379-.7547.75472v3.82861z" fill="#ff6101"/></svg>